<?xml version="1.0" standalone="no"?>
<!DOCTYPE svg PUBLIC "-//W3C//DTD SVG 20010904//EN"
 "http://www.w3.org/TR/2001/REC-SVG-20010904/DTD/svg10.dtd">
<svg version="1.0" xmlns="http://www.w3.org/2000/svg"
 width="826.000000pt" height="826.000000pt" viewBox="0 0 826.000000 826.000000"
 preserveAspectRatio="xMidYMid meet">

<g transform="translate(0.000000,826.000000) scale(0.100000,-0.100000)"
fill="#000000" stroke="none">
<path d="M0 4130 l0 -4130 4130 0 4130 0 0 4130 0 4130 -4130 0 -4130 0 0
-4130z m4360 2759 c63 -6 122 -15 132 -20 16 -9 18 -25 18 -134 l0 -125 -310
0 -310 0 0 125 c0 148 -8 139 143 154 133 12 197 12 327 0z m383 -47 c15 -13
17 -36 17 -187 0 -160 -2 -175 -23 -215 -16 -30 -37 -51 -67 -67 -43 -23 -46
-23 -417 -23 l-374 0 3 68 3 67 351 5 c277 4 354 8 367 19 15 11 17 36 17 165
0 107 4 157 13 168 22 29 76 29 110 0z m-999 12 c33 -13 36 -74 32 -631 l-5
-548 -318 -5 c-283 -5 -323 -7 -365 -24 -44 -19 -47 -19 -72 -3 -14 10 -26 26
-26 36 0 33 44 84 95 110 49 26 54 26 297 29 l248 3 0 499 0 499 26 20 c27 21
58 26 88 15z m-306 -398 c1 -205 -1 -313 -8 -327 -26 -48 -116 -44 -139 7 -7
17 -11 114 -11 298 l0 273 25 23 c22 21 91 41 120 35 6 -1 11 -114 13 -309z
m1672 268 l24 -24 4 -249 c5 -262 1 -310 -24 -336 -22 -21 -90 -19 -112 3 -17
17 -19 45 -25 318 -3 195 -2 303 5 311 16 20 99 5 128 -23z m-1961 -88 c8 -9
11 -43 9 -91 l-3 -77 -127 -73 c-121 -70 -217 -133 -303 -199 -341 -263 -627
-632 -778 -1004 l-26 -62 277 0 277 0 -3 -75 -4 -75 -296 0 -297 0 -22 -82
c-13 -46 -25 -100 -29 -121 -8 -45 -20 -49 -124 -45 l-75 3 3 35 c4 46 47 223
77 313 179 559 586 1072 1104 1395 114 71 300 172 317 172 6 0 17 -6 23 -14z
m2172 -8 c86 -30 376 -211 539 -336 120 -92 360 -337 455 -464 191 -254 321
-508 409 -793 32 -104 71 -283 64 -290 -7 -7 -176 -10 -183 -3 -3 3 -18 57
-33 119 l-28 114 -276 3 -276 2 -25 75 -26 75 275 0 c175 0 274 4 274 10 0 20
-90 214 -143 308 -116 205 -316 449 -500 613 -127 112 -298 234 -454 324 -68
39 -124 75 -126 80 -6 21 5 175 12 175 5 0 23 -5 42 -12z m-626 -437 c22 -10
54 -34 72 -52 51 -54 63 -95 63 -213 l0 -105 213 -3 c210 -3 213 -3 275 -32
71 -33 106 -69 123 -126 9 -31 9 -43 -1 -55 -16 -20 -54 -19 -71 2 -8 9 -36
27 -64 39 -48 23 -59 24 -302 24 l-253 0 0 141 c0 160 -10 195 -65 229 -31 19
-49 20 -393 20 -210 0 -371 4 -386 10 -24 9 -26 14 -26 75 l0 65 388 0 c356 0
390 -2 427 -19z m-1672 -45 c38 -15 84 -66 93 -102 10 -39 -5 -92 -36 -127
-78 -90 -216 -55 -251 63 -12 39 -11 46 12 89 42 80 109 108 182 77z m2482 -5
c49 -22 69 -44 84 -93 25 -77 -23 -156 -109 -179 -40 -11 -51 -10 -92 9 -101
44 -119 162 -36 239 48 45 93 52 153 24z m-1497 -213 c51 -49 11 -138 -63
-138 -88 0 -116 112 -38 154 33 19 69 13 101 -16z m610 -1 c52 -47 10 -137
-63 -137 -41 0 -85 36 -85 70 0 39 29 79 63 88 38 10 54 6 85 -21z m-270
-1594 l2 -1553 79 0 c46 0 83 -5 86 -11 4 -6 4 -39 0 -75 l-7 -64 -159 0 -159
0 0 1013 -1 1012 -30 -57 c-65 -119 -179 -218 -309 -267 -59 -22 -83 -25 -262
-29 l-198 -4 0 -79 0 -79 74 0 c175 0 333 -95 413 -246 48 -93 53 -132 55
-494 l3 -335 -82 -3 -82 -3 3 -284 c2 -156 7 -288 11 -294 4 -8 122 -11 366
-11 l360 0 -3 -71 -3 -71 -357 2 c-230 0 -369 5 -390 12 -42 14 -85 53 -109
100 -18 35 -19 66 -19 635 l0 598 -29 61 c-46 97 -124 144 -240 144 -36 -1
-84 -7 -106 -15 -22 -8 -41 -15 -42 -15 -2 0 -3 161 -3 358 l0 359 230 6 c210
5 234 7 275 27 214 104 202 397 -20 501 l-60 29 -332 0 -333 0 0 -1105 0
-1105 -145 0 -145 0 0 1256 0 1255 508 -3 507 -3 70 -26 c204 -76 336 -202
412 -394 4 -11 9 178 11 420 1 242 4 446 7 453 3 9 25 12 77 10 l73 -3 3
-1552z m-1660 1462 c61 -51 51 -76 -92 -231 -54 -60 -134 -152 -177 -206 -67
-82 -85 -98 -115 -104 -61 -11 -116 48 -101 107 8 31 168 220 302 357 111 113
130 121 183 77z m3202 -92 c174 -179 290 -325 290 -366 0 -32 -29 -74 -55 -81
-49 -12 -73 4 -164 114 -49 59 -132 152 -184 206 -130 137 -138 155 -88 205
21 20 39 29 63 29 29 0 46 -13 138 -107z m-550 -302 c99 -35 168 -78 241 -150
101 -100 156 -224 166 -371 9 -137 -40 -284 -129 -385 -46 -53 -145 -120 -199
-136 -21 -7 -39 -15 -39 -18 0 -4 28 -12 62 -18 207 -40 397 -233 444 -451 74
-352 -137 -687 -496 -785 -65 -17 -114 -21 -352 -25 l-278 -4 0 -682 c0 -374
-4 -686 -8 -692 -24 -36 -113 -42 -126 -8 -3 9 -6 261 -6 560 0 477 -2 544
-15 544 -13 0 -15 154 -15 1326 l0 1326 343 -4 c326 -4 345 -5 407 -27z
m-1897 -489 c21 -11 35 -66 25 -94 -12 -34 -35 -48 -82 -48 -61 0 -96 68 -60
118 26 37 77 47 117 24z m-1152 -80 c26 -22 31 -75 8 -97 -29 -28 -66 -29 -93
-1 -65 64 14 155 85 98z m3929 -2 c20 -20 26 -65 12 -86 -10 -15 -47 -34 -67
-34 -22 0 -65 45 -65 68 0 59 79 93 120 52z m-3750 -305 l0 -75 -445 0 -446 0
-24 25 c-14 13 -25 36 -25 50 0 14 11 37 25 50 l24 25 446 0 445 0 0 -75z
m4373 64 c29 -16 37 -28 37 -64 0 -75 1 -75 -499 -75 l-440 0 87 -87 c89 -90
158 -185 190 -260 l17 -43 293 0 c340 0 351 -2 352 -77 0 -20 -8 -40 -22 -53
-21 -19 -34 -20 -298 -20 l-277 0 8 -47 c4 -27 8 -76 8 -111 l1 -63 -77 3 -77
3 -12 96 c-23 185 -107 351 -243 482 l-71 69 50 66 c27 37 62 95 77 130 l27
62 424 0 c300 0 430 -3 445 -11z m-4568 -274 c31 -30 33 -82 5 -113 -21 -22
-24 -22 -366 -22 l-345 0 -24 25 c-33 33 -32 70 4 106 l29 29 337 0 336 0 24
-25z m4597 -2 c31 -31 30 -89 -1 -114 -21 -17 -44 -19 -263 -19 -134 0 -247 4
-257 10 -31 16 -45 64 -29 96 24 51 42 54 295 52 225 -3 233 -4 255 -25z
m-4402 -328 l0 -75 -442 0 c-333 1 -447 4 -459 13 -25 19 -41 57 -35 83 13 52
25 53 499 54 l437 0 0 -75z m-177 -203 c20 -18 23 -75 4 -90 -6 -6 -24 -13
-39 -17 -21 -5 -33 -1 -52 19 -33 32 -33 60 -1 92 27 27 54 26 88 -4z m-485
-4 c5 -7 15 -44 21 -83 7 -38 17 -87 23 -107 l11 -38 304 0 303 0 0 -80 0 -80
-280 0 -280 0 22 -47 c64 -145 145 -306 180 -363 179 -286 385 -505 657 -699
106 -76 323 -207 374 -226 14 -6 17 -20 17 -80 0 -126 -7 -128 -148 -55 -279
145 -521 319 -692 496 -340 353 -564 756 -665 1194 -25 109 -31 161 -18 173
12 13 160 8 171 -5z m4978 -3 c15 -37 -80 -382 -151 -555 -156 -375 -417 -723
-740 -986 -129 -106 -339 -241 -490 -317 -146 -73 -136 -76 -133 40 l3 98 110
59 c437 233 802 606 1010 1031 35 72 73 156 84 188 l21 58 -125 -3 -126 -3
-32 -75 c-130 -299 -379 -514 -697 -601 -61 -17 -114 -22 -290 -26 -123 -3
-220 -9 -227 -15 -9 -7 -13 -38 -13 -90 0 -65 4 -85 20 -105 69 -88 -51 -193
-131 -114 -32 32 -37 67 -14 97 11 15 14 54 15 177 0 213 -20 197 253 197 190
0 222 2 312 24 117 29 193 61 284 120 191 124 326 313 381 534 l11 42 217 0
217 0 24 108 c13 59 28 113 33 120 16 18 167 17 174 -3z m-3317 -131 c28 -36
27 -75 -4 -104 -54 -51 -135 -19 -135 53 0 72 95 106 139 51z m-45 -330 c14
-5 16 -43 16 -320 0 -213 -4 -321 -11 -338 -14 -31 -61 -49 -93 -36 -55 21
-56 27 -56 377 l0 323 64 0 c35 0 71 -3 80 -6z m-1054 -124 c16 -31 11 -60
-15 -85 -30 -30 -64 -32 -99 -4 -43 34 -30 97 25 117 30 11 76 -3 89 -28z
m260 -422 c25 -28 25 -48 -1 -82 -24 -30 -63 -34 -97 -10 -27 18 -30 69 -5 96
23 25 77 24 103 -4z m1373 -39 c27 -33 31 -66 13 -95 -34 -51 -95 -56 -136
-12 -31 34 -26 81 12 113 37 31 82 29 111 -6z m1755 -95 c47 -33 17 -114 -42
-114 -26 0 -66 38 -66 64 0 27 38 66 65 66 11 0 31 -7 43 -16z m-2715 -8 c55
-23 87 -69 87 -127 0 -92 -51 -149 -135 -149 -131 0 -199 134 -118 231 46 55
105 71 166 45z m371 -147 l26 -20 0 -354 c0 -262 -3 -354 -12 -357 -19 -7
-110 20 -130 38 -17 16 -18 39 -18 341 l0 324 25 24 c30 31 73 32 109 4z
m1971 -4 c31 -30 32 -66 3 -99 -32 -35 -58 -39 -96 -16 -27 17 -32 26 -32 58
0 75 74 109 125 57z m-1626 -301 c20 -25 21 -39 21 -256 0 -139 -4 -237 -10
-249 -14 -26 -73 -25 -111 2 l-29 20 0 234 0 234 26 20 c37 29 78 27 103 -5z
m751 -49 l0 -75 -312 2 -313 3 -3 29 c-2 17 -1 49 3 73 l6 43 310 0 309 0 0
-75z m598 58 c19 -16 22 -33 28 -180 9 -216 2 -232 -110 -248 -35 -6 -46 -4
-47 6 -1 8 -1 100 1 204 2 177 3 192 23 213 25 27 76 29 105 5z m-598 -402 l0
-140 -47 -8 c-76 -13 -513 -9 -545 5 l-28 12 0 135 0 135 310 0 310 0 0 -139z
m-2137 -382 c21 -26 22 -58 1 -87 -14 -21 -14 -25 0 -47 16 -24 16 -25 -9 -25
-15 0 -31 9 -41 25 -9 14 -25 25 -35 25 -14 0 -19 -7 -19 -25 0 -20 -5 -25
-25 -25 -24 0 -25 2 -25 76 0 41 5 85 11 96 10 18 17 20 68 14 39 -4 61 -12
74 -27z m217 -80 l41 -79 -24 0 c-14 0 -27 7 -31 15 -7 20 -66 20 -92 0 -19
-15 -54 -20 -54 -9 0 4 21 47 47 96 54 102 47 104 113 -23z m220 86 c47 -42
13 -105 -57 -105 -41 0 -43 -1 -43 -30 0 -23 -4 -30 -20 -30 -18 0 -20 7 -20
88 0 49 3 92 8 96 13 14 111 0 132 -19z m100 -15 l0 -40 45 0 45 0 0 40 c0 33
3 40 20 40 17 0 20 -7 20 -40 0 -40 0 -40 39 -40 39 0 40 1 43 37 2 27 8 39
21 41 15 3 17 -6 17 -92 0 -89 -1 -96 -20 -96 -16 0 -20 7 -20 35 0 34 -1 35
-40 35 -39 0 -40 -1 -40 -35 0 -28 -4 -35 -20 -35 -16 0 -20 7 -20 35 0 35 0
35 -45 35 -45 0 -45 0 -45 -35 0 -28 -4 -35 -20 -35 -18 0 -20 7 -20 88 0 90
3 102 27 102 9 0 13 -13 13 -40z m500 -146 c0 -2 -11 -4 -25 -4 -14 0 -25 5
-25 10 0 6 -25 10 -55 10 -30 0 -55 -4 -55 -10 0 -5 -9 -10 -21 -10 -26 0 -21
19 33 118 l40 72 54 -91 c30 -50 54 -93 54 -95z m185 161 c0 -21 -2 -22 -66
-24 -28 -1 -39 -5 -36 -13 2 -8 20 -12 45 -11 38 1 42 -1 42 -23 0 -22 -4 -24
-46 -24 -62 0 -54 -24 9 -28 39 -3 47 -6 47 -23 0 -17 -7 -19 -70 -19 l-70 0
0 88 c0 49 3 92 7 96 4 4 37 6 73 4 57 -3 65 -5 65 -23z m95 -50 l0 -75 45 0
c38 0 45 -3 45 -20 0 -18 -7 -20 -65 -20 -45 0 -65 4 -65 13 -1 26 -2 143 -1
160 1 10 9 17 21 17 18 0 20 -7 20 -75z m592 47 c18 -18 20 -25 10 -46 -7 -16
-8 -28 -2 -31 15 -10 12 -52 -6 -69 -11 -11 -35 -16 -80 -16 l-64 0 0 88 c0
49 3 92 8 96 15 16 113 0 134 -22z m225 -4 c31 -29 37 -52 23 -93 -28 -84
-152 -85 -179 -2 -32 95 83 164 156 95z m221 10 c-3 -20 -10 -23 -51 -26 -60
-4 -59 -26 1 -30 34 -3 42 -7 42 -23 0 -16 -7 -19 -45 -19 -33 0 -45 -4 -45
-15 0 -12 13 -15 55 -15 48 0 55 -2 55 -20 0 -18 -7 -20 -75 -20 l-75 0 0 95
0 95 71 0 c67 0 70 -1 67 -22z m207 -3 c0 -17 -7 -20 -45 -20 -34 0 -46 -4
-48 -18 -3 -14 4 -17 37 -17 34 0 41 -3 41 -20 0 -17 -7 -20 -40 -20 -29 0
-40 -4 -40 -15 0 -11 12 -15 50 -15 43 0 50 -3 50 -20 0 -18 -7 -20 -75 -20
l-75 0 0 88 c0 49 3 92 7 96 4 4 37 6 73 4 57 -3 65 -5 65 -23z m360 11 c27
-12 35 -21 35 -40 0 -14 -5 -28 -10 -31 -6 -4 -4 -12 5 -22 16 -15 13 -48 -6
-68 -5 -5 -41 -11 -79 -13 l-70 -4 0 89 c0 49 3 93 7 96 11 12 83 7 118 -7z
m220 -1 c87 -42 66 -159 -32 -172 -37 -5 -45 -2 -73 25 -41 42 -42 92 -1 133
33 33 58 36 106 14z m198 -4 c4 -4 5 -15 1 -24 -4 -12 -14 -15 -35 -10 -34 7
-40 -12 -6 -23 56 -17 72 -59 37 -94 -23 -23 -57 -26 -95 -8 -27 12 -29 16
-16 37 7 11 15 11 40 3 44 -16 46 1 3 29 -46 30 -52 76 -12 96 24 13 67 10 83
-6z m188 -71 c24 -47 46 -88 47 -92 2 -5 -7 -8 -21 -8 -14 0 -27 6 -30 13 -6
15 -82 14 -102 -3 -8 -6 -21 -10 -30 -8 -13 2 -10 14 15 67 30 62 69 125 75
119 2 -2 23 -41 46 -88z m137 12 l3 -73 30 5 c41 6 59 -2 59 -25 0 -17 -8 -19
-70 -19 l-70 0 0 88 c0 92 4 105 30 100 11 -3 16 -20 18 -76z m277 53 c0 -17
-8 -20 -47 -23 -34 -2 -48 -7 -48 -18 0 -10 12 -14 40 -14 33 0 40 -3 40 -20
0 -17 -7 -20 -40 -20 -28 0 -40 -4 -40 -14 0 -11 14 -16 47 -18 36 -2 49 -7
51 -20 3 -16 -5 -18 -66 -18 -74 0 -81 5 -76 50 1 14 3 51 3 83 l1 58 68 -3
c59 -3 67 -5 67 -23z m-3017 -288 c6 -7 10 -26 10 -43 -1 -17 2 -36 6 -42 11
-19 -36 -42 -86 -42 l-48 0 0 70 0 70 54 0 c31 0 58 -5 64 -13z m192 -2 c0 -8
-9 -15 -19 -15 -17 0 -20 -8 -23 -52 -2 -40 -7 -54 -20 -56 -14 -3 -17 6 -20
50 -3 46 -6 53 -25 56 -13 2 -23 10 -23 18 0 11 15 14 65 14 51 0 65 -3 65
-15z m139 6 c23 -15 2 -34 -30 -27 -39 8 -36 -1 6 -18 27 -12 35 -21 35 -41 0
-33 -39 -53 -78 -39 -41 14 -35 40 8 36 l35 -2 -33 14 c-38 18 -48 37 -32 65
11 22 62 29 89 12z m290 -5 c15 -18 -1 -30 -29 -21 -32 10 -23 -9 10 -22 32
-12 41 -48 18 -71 -16 -16 -60 -15 -83 1 -26 20 -10 39 28 33 l32 -6 -32 15
c-36 16 -51 49 -33 70 16 19 74 19 89 1z m99 -53 c-2 -42 -8 -68 -15 -71 -10
-3 -13 15 -13 67 0 57 3 71 15 71 13 0 15 -12 13 -67z m186 46 c33 -26 34 -62
1 -94 -39 -40 -105 -28 -122 22 -26 73 56 123 121 72z m305 12 c20 -13 2 -34
-25 -28 -34 6 -30 -6 6 -20 65 -25 18 -100 -48 -77 -41 14 -35 40 8 37 l35 -3
-30 17 c-47 25 -55 42 -29 67 17 17 61 21 83 7z m111 -40 l0 -50 37 -3 c27 -2
39 -8 41 -20 3 -16 -5 -18 -57 -18 l-61 0 0 70 c0 63 2 70 20 70 17 0 20 -7
20 -49z m244 -21 c34 -64 36 -70 17 -70 -11 0 -23 5 -26 10 -3 6 -19 10 -35
10 -16 0 -32 -4 -35 -10 -7 -11 -45 -14 -45 -3 0 12 71 133 78 133 4 0 25 -31
46 -70z m127 44 l27 -26 35 26 c18 14 37 26 40 26 4 0 7 -31 7 -70 0 -63 -2
-70 -20 -70 -15 0 -20 7 -20 25 0 23 -2 24 -20 13 -15 -10 -22 -10 -32 0 -19
19 -28 14 -28 -13 0 -16 -6 -25 -15 -25 -12 0 -15 14 -15 70 0 39 3 70 7 70 4
0 19 -12 34 -26z"/>
<path d="M4880 4850 l0 -283 168 5 c145 4 174 7 217 27 105 47 165 138 165
251 -1 104 -53 191 -149 248 -45 26 -51 27 -223 30 l-178 4 0 -282z m293 49
c42 -52 5 -128 -65 -131 -43 -1 -54 5 -73 43 -19 37 -11 73 24 100 32 26 88
20 114 -12z"/>
<path d="M4880 3744 l0 -376 208 4 c187 4 212 6 263 27 82 33 152 99 191 179
30 61 33 74 33 162 0 82 -4 103 -27 152 -33 71 -93 137 -156 171 -85 46 -150
57 -339 57 l-173 0 0 -376z m264 155 c33 -26 37 -88 6 -119 -29 -29 -84 -27
-115 5 -33 32 -32 72 2 107 32 34 70 36 107 7z"/>
<path d="M2275 1382 c-3 -3 -5 -16 -5 -29 0 -19 5 -23 29 -23 31 0 54 19 43
36 -8 12 -59 24 -67 16z"/>
<path d="M2515 1330 c-9 -15 -1 -23 21 -18 15 3 16 4 1 16 -11 9 -17 10 -22 2z"/>
<path d="M2710 1360 c0 -18 5 -21 33 -18 20 2 32 8 32 18 0 10 -12 16 -32 18
-28 3 -33 0 -33 -18z"/>
<path d="M3297 1333 c-12 -12 -7 -33 8 -33 17 0 19 9 7 28 -5 7 -11 9 -15 5z"/>
<path d="M4180 1375 c0 -10 11 -15 35 -15 36 0 47 13 19 24 -28 11 -54 6 -54
-9z"/>
<path d="M4180 1295 c0 -12 7 -14 28 -11 15 2 33 5 40 5 6 1 12 6 12 11 0 6
-18 10 -40 10 -29 0 -40 -4 -40 -15z"/>
<path d="M4412 1368 c-27 -27 -7 -78 29 -78 21 0 49 26 49 45 0 35 -53 58 -78
33z"/>
<path d="M5217 1384 c-15 -16 -5 -24 29 -24 24 0 34 4 32 13 -5 13 -50 22 -61
11z"/>
<path d="M5212 1298 c5 -15 67 -18 71 -3 1 6 -15 11 -37 13 -28 3 -37 0 -34
-10z"/>
<path d="M5436 1358 c-13 -19 -14 -25 -2 -43 16 -25 65 -27 79 -3 8 12 8 24
-1 42 -15 33 -55 35 -76 4z"/>
<path d="M5836 1324 c-9 -23 -8 -24 14 -24 23 0 26 13 6 29 -11 9 -15 8 -20
-5z"/>
<path d="M3233 1083 c9 -2 23 -2 30 0 6 3 -1 5 -18 5 -16 0 -22 -2 -12 -5z"/>
<path d="M3225 1040 c-4 -6 5 -10 19 -10 14 0 26 5 26 10 0 6 -9 10 -19 10
-11 0 -23 -4 -26 -10z"/>
<path d="M4124 1075 c-9 -23 3 -45 25 -45 22 0 41 27 34 48 -6 17 -52 15 -59
-3z"/>
<path d="M4810 1050 c0 -5 5 -10 11 -10 5 0 7 5 4 10 -3 6 -8 10 -11 10 -2 0
-4 -4 -4 -10z"/>
</g>
</svg>
